<svg width="20" height="21" viewBox="0 0 20 21" fill="none" xmlns="http://www.w3.org/2000/svg">
<path fill-rule="evenodd" clip-rule="evenodd" d="M11.082 4.69878C10.6006 3.86717 9.3999 3.86717 8.91844 4.69878L3.22067 14.5404C2.73822 15.3737 3.33954 16.4167 4.30246 16.4167H15.698C16.6609 16.4167 17.2622 15.3737 16.7798 14.5404L11.082 4.69878ZM7.6203 3.94722C8.67951 2.11769 11.3209 2.11769 12.3801 3.94722L18.0779 13.7888C19.1393 15.6222 17.8164 17.9167 15.698 17.9167H4.30246C2.18404 17.9167 0.861127 15.6222 1.92253 13.7888L7.6203 3.94722ZM10.0002 7.25001C10.4144 7.25001 10.7502 7.5858 10.7502 8.00001V11.3333C10.7502 11.7476 10.4144 12.0833 10.0002 12.0833C9.58601 12.0833 9.25022 11.7476 9.25022 11.3333V8.00001C9.25022 7.5858 9.58601 7.25001 10.0002 7.25001ZM10.0002 14.6667C10.4605 14.6667 10.8336 14.2936 10.8336 13.8333C10.8336 13.3731 10.4605 13 10.0002 13C9.53999 13 9.16689 13.3731 9.16689 13.8333C9.16689 14.2936 9.53999 14.6667 10.0002 14.6667Z" fill="#DF8500"/>
</svg>
