<svg width="32" height="32" viewBox="0 0 32 32" fill="none" xmlns="http://www.w3.org/2000/svg">
<g id="inst">
<g id="_x36_2-instagram">
<g id="Group">
<path id="Vector" d="M21.4496 1.375H10.52C5.49088 1.375 1.4375 5.42894 1.4375 10.4349V21.3148C1.4375 26.3211 5.49088 30.4375 10.52 30.4375H21.4496C26.4788 30.4375 30.625 26.3211 30.625 21.3148V10.4349C30.625 5.42894 26.4788 1.375 21.4496 1.375ZM27.875 21.3148C27.875 24.8141 24.9649 27.6875 21.4496 27.6875H10.52C7.00444 27.6875 4.125 24.8141 4.125 21.3148V10.4349C4.125 6.93581 7.00444 4.0625 10.52 4.0625H21.4496C24.9649 4.0625 27.875 6.93581 27.875 10.4349V21.3148Z" fill="white"/>
<path id="Vector_2" d="M15.9847 8.62158C11.9609 8.62158 8.69843 11.8691 8.69843 15.875C8.69843 19.8803 11.9609 23.1278 15.9847 23.1278C20.0087 23.1278 23.271 19.8803 23.271 15.875C23.271 11.8691 20.0087 8.62158 15.9847 8.62158ZM15.9847 20.4081C13.4745 20.4081 11.431 18.3736 11.431 15.875C11.431 13.374 13.4745 11.3416 15.9847 11.3416C18.4949 11.3416 20.5386 13.3741 20.5386 15.875C20.5386 18.3736 18.4949 20.4081 15.9847 20.4081Z" fill="white"/>
<path id="Vector_3" d="M23.8175 7.11133C23.2812 7.11133 22.8464 7.54408 22.8464 8.07777C22.8464 8.61152 23.2812 9.04445 23.8175 9.04445C24.3533 9.04445 24.7882 8.61152 24.7882 8.07777C24.7882 7.54408 24.3533 7.11133 23.8175 7.11133Z" fill="white"/>
</g>
</g>
</g>
</svg>
