<svg width="32" height="32" viewBox="0 0 32 32" fill="none" xmlns="http://www.w3.org/2000/svg">
<g id="wp">
<g id="_x31_3-whatsapp">
<g id="Group">
<g id="Group_2">
<path id="Vector" d="M16.004 1.04688H15.9962C7.77372 1.04688 1.08734 7.75319 1.08734 16C1.08734 19.271 2.13853 22.303 3.92622 24.7645L2.06797 30.3191L7.80022 28.4819C10.158 30.0484 12.9709 30.9531 16.004 30.9531C24.2264 30.9531 30.9128 24.2446 30.9128 15.9999C30.9128 7.75519 24.2263 1.04688 16.004 1.04688Z" fill="white"/>
<path id="Vector_2" d="M24.681 22.1622C24.3211 23.1812 22.8933 24.0258 21.7545 24.2729C20.9749 24.439 19.9574 24.572 16.5315 23.1475C12.1487 21.3271 9.3265 16.8616 9.10682 16.5719C8.89588 16.2821 7.33582 14.2077 7.33582 12.0616C7.33582 9.91592 8.42244 8.87086 8.86069 8.42267C9.22013 8.05411 9.81488 7.88623 10.3853 7.88623C10.5699 7.88623 10.7357 7.89536 10.8851 7.90292C11.3231 7.92179 11.5429 7.94773 11.8321 8.64123C12.1918 9.51054 13.0677 11.6562 13.1724 11.8769C13.2787 12.0975 13.3846 12.3964 13.2356 12.686C13.0956 12.9852 12.9728 13.1179 12.7528 13.3719C12.5328 13.6265 12.3238 13.8208 12.104 14.0934C11.9028 14.3308 11.6753 14.5851 11.9289 15.0244C12.1824 15.4544 13.0583 16.8877 14.3481 18.0391C16.0132 19.525 17.3624 19.9999 17.8454 20.2019C18.2052 20.3515 18.6339 20.3157 18.8964 20.0354C19.2302 19.6745 19.6426 19.0765 20.0618 18.488C20.3599 18.0655 20.7364 18.013 21.1317 18.1625C21.5343 18.3027 23.6649 19.3589 24.103 19.5775C24.5409 19.7981 24.8302 19.9027 24.9364 20.0879C25.0408 20.2725 25.0408 21.1419 24.681 22.1622Z" fill="#252525"/>
</g>
</g>
</g>
</g>
</svg>
