<svg width="174" height="48" viewBox="0 0 174 48" fill="none" xmlns="http://www.w3.org/2000/svg">
<path d="M12.699 0.0337019L22.8857 23.8949H19.9604L12.0107 3.23542L12.699 0.0337019ZM5.29984 21.6369C5.13924 22.0862 5.1163 22.4682 5.23101 22.7828C5.34573 23.0973 5.52927 23.3445 5.78165 23.5242C6.05696 23.6815 6.33228 23.7601 6.60759 23.7601H6.91733V24.0971H0V23.7601C0 23.7601 0.0573576 23.7601 0.172073 23.7601C0.263845 23.7601 0.309731 23.7601 0.309731 23.7601C0.837421 23.7601 1.37658 23.6028 1.92722 23.2883C2.50079 22.9513 2.97112 22.4008 3.33821 21.6369H5.29984ZM12.699 0.0337019L13.0087 2.39286L4.37065 23.996H2.30578L11.1159 3.50504C11.1159 3.50504 11.1733 3.37023 11.288 3.10061C11.4256 2.80852 11.5748 2.46027 11.7354 2.05584C11.9189 1.65141 12.068 1.25822 12.1828 0.876261C12.3204 0.494301 12.3892 0.213448 12.3892 0.0337019H12.699ZM17.5514 14.8964V15.9075H6.77967V14.8964H17.5514ZM19.1001 21.6369H21.9221C22.2662 22.4008 22.7251 22.9513 23.2987 23.2883C23.8722 23.6028 24.4229 23.7601 24.9506 23.7601C24.9506 23.7601 24.9964 23.7601 25.0882 23.7601C25.18 23.7601 25.2259 23.7601 25.2259 23.7601V24.0971H17.4826V23.7601H17.7923C18.2282 23.7601 18.6183 23.5804 18.9624 23.2209C19.3066 22.8389 19.3525 22.3109 19.1001 21.6369Z" fill="white"/>
<path d="M30.9357 3.87576H35.3752C36.4535 3.87576 37.4171 3.99934 38.266 4.24649C39.1379 4.49364 39.872 4.85313 40.4686 5.32496C41.088 5.7968 41.5584 6.36973 41.8796 7.04378C42.2008 7.71783 42.3614 8.48175 42.3614 9.33554C42.3614 10.2792 42.1319 11.1555 41.6731 11.9643C41.2142 12.7732 40.5718 13.436 39.7459 13.9528C38.9428 14.4695 38.0251 14.7841 36.9927 14.8964C37.3827 15.0537 37.8301 15.4019 38.3349 15.9412C38.8625 16.4804 39.3099 17.0084 39.677 17.5252C39.677 17.5252 39.8262 17.7274 40.1244 18.1318C40.4227 18.5138 40.8012 18.9969 41.2601 19.581C41.7419 20.1427 42.2122 20.682 42.6711 21.1987C43.1529 21.7155 43.5888 22.1649 43.9788 22.5468C44.3918 22.9288 44.8277 23.2321 45.2866 23.4568C45.7684 23.659 46.319 23.7601 46.9385 23.7601V24.0971H45.8716C44.6098 24.0971 43.5659 23.9399 42.7399 23.6253C41.9369 23.3108 41.283 22.9288 40.7783 22.4794C40.2735 22.0076 39.8376 21.5582 39.4705 21.1313C39.3788 21.019 39.1608 20.7381 38.8167 20.2888C38.4955 19.8169 38.1398 19.3114 37.7498 18.7722C37.3598 18.2329 37.0042 17.7499 36.683 17.323C36.3618 16.8736 36.1667 16.604 36.0979 16.5141C35.639 15.93 35.1114 15.4132 34.5148 14.9638C33.9183 14.492 33.2874 14.2561 32.622 14.2561V13.919C32.622 13.919 32.8056 13.9303 33.1727 13.9528C33.5398 13.9528 34.0101 13.9415 34.5837 13.919C35.2261 13.8966 35.8685 13.8516 36.5109 13.7842C37.1533 13.6944 37.7498 13.4472 38.3004 13.0428C38.874 12.6384 39.3214 11.9643 39.6426 11.0207C39.7344 10.7735 39.8032 10.4814 39.8491 10.1444C39.895 9.80737 39.9065 9.45911 39.8835 9.09962C39.8606 8.47051 39.7344 7.90881 39.505 7.41451C39.2985 6.92021 38.9887 6.49331 38.5758 6.13382C38.1857 5.77433 37.7154 5.49347 37.1648 5.29126C36.6141 5.08905 35.9947 4.97671 35.3064 4.95424C34.2281 4.9093 33.2874 4.89807 32.4844 4.92054C31.6814 4.943 31.2799 4.943 31.2799 4.92054C31.2799 4.89807 31.2455 4.80819 31.1766 4.65092C31.1307 4.47117 31.0734 4.30266 31.0046 4.14538C30.9587 3.96564 30.9357 3.87576 30.9357 3.87576ZM31.3487 3.87576V24.0971H29.1462V3.87576H31.3487ZM29.2494 21.9402L29.6624 24.0971H26.7372V23.7601C26.7372 23.7601 26.8175 23.7601 26.9781 23.7601C27.1387 23.7601 27.219 23.7601 27.219 23.7601C27.7696 23.7601 28.2284 23.5804 28.5955 23.2209C28.9626 22.8614 29.1576 22.4345 29.1806 21.9402H29.2494ZM29.2494 5.99901H29.1806C29.1576 5.48224 28.9626 5.05535 28.5955 4.71832C28.2284 4.3813 27.7696 4.21279 27.219 4.21279C27.219 4.21279 27.1387 4.21279 26.9781 4.21279C26.8175 4.21279 26.7372 4.21279 26.7372 4.21279V3.87576H29.6624L29.2494 5.99901ZM31.2455 21.9402H31.3487C31.3716 22.4345 31.5667 22.8614 31.9338 23.2209C32.3008 23.5804 32.7597 23.7601 33.3103 23.7601C33.3103 23.7601 33.3792 23.7601 33.5168 23.7601C33.6774 23.7601 33.7577 23.7601 33.7577 23.7601L33.7921 24.0971H30.8325L31.2455 21.9402Z" fill="white"/>
<path d="M58.2195 3.40393C59.2749 3.40393 60.2614 3.48257 61.1791 3.63985C62.1198 3.77466 63.0031 3.99934 63.8291 4.31389C64.6779 4.60598 65.481 4.98794 66.2381 5.45977L66.9952 10.2118H66.6855C66.3643 8.88617 65.8366 7.79647 65.1024 6.94267C64.3912 6.08888 63.462 5.45977 62.3148 5.05535C61.1677 4.62845 59.7911 4.415 58.1851 4.415C56.4414 4.415 54.9042 4.80819 53.5735 5.59458C52.2658 6.3585 51.2448 7.45944 50.5106 8.89741C49.7764 10.3129 49.4094 12.0093 49.4094 13.9865C49.4094 15.9412 49.7764 17.6375 50.5106 19.0755C51.2448 20.5135 52.2772 21.6256 53.6079 22.412C54.9386 23.1759 56.4758 23.5579 58.2195 23.5579C59.1831 23.5579 60.1008 23.4568 60.9726 23.2546C61.8445 23.0524 62.6819 22.7378 63.4849 22.3109C64.3109 21.8616 65.0795 21.2999 65.7907 20.6258L65.8251 16.1434C65.848 15.7165 65.7104 15.3907 65.4121 15.166C65.1368 14.9414 64.7468 14.829 64.242 14.829H63.7602V14.492H70.0581V14.829H69.5763C68.5438 14.829 68.0276 15.2784 68.0276 16.1771V20.2214C67.4999 20.873 66.7772 21.5358 65.8595 22.2098C64.9418 22.8839 63.8405 23.4456 62.5557 23.8949C61.2938 24.3443 59.8484 24.569 58.2195 24.569C55.9481 24.5465 53.9635 24.1084 52.2658 23.2546C50.5909 22.4008 49.2832 21.1875 48.3425 19.6147C47.4018 18.042 46.9315 16.1659 46.9315 13.9865C46.9315 11.7846 47.4018 9.89724 48.3425 8.32447C49.2832 6.75169 50.6024 5.53841 52.3002 4.68462C53.998 3.83083 55.9711 3.40393 58.2195 3.40393Z" fill="white"/>
<path d="M82.3161 3.40393L91.7801 23.8949H89.0614L81.7311 6.40344L82.3161 3.40393ZM75.6741 21.6369C75.4217 22.3109 75.4562 22.8389 75.7774 23.2209C76.0986 23.5804 76.4656 23.7601 76.8786 23.7601H77.1539V24.0971H70.5808V23.7601C70.5808 23.7601 70.6266 23.7601 70.7184 23.7601C70.8102 23.7601 70.8561 23.7601 70.8561 23.7601C71.3379 23.7601 71.8312 23.6028 72.3359 23.2883C72.8406 22.9513 73.2766 22.4008 73.6437 21.6369H75.6741ZM82.3161 3.40393L82.557 5.72939L74.6761 23.996H72.508L80.6642 6.87527C80.6642 6.87527 80.7216 6.74046 80.8363 6.47084C80.974 6.20122 81.1231 5.87543 81.2837 5.49347C81.4672 5.08905 81.6278 4.69585 81.7655 4.31389C81.9031 3.93194 81.9835 3.62861 82.0064 3.40393H82.3161ZM86.377 16.2445V17.2556H77.2572V16.2445H86.377ZM88.1322 21.6369H90.7477C91.0918 22.4008 91.5163 22.9513 92.021 23.2883C92.5258 23.6028 93.0076 23.7601 93.4664 23.7601C93.4664 23.7601 93.5123 23.7601 93.6041 23.7601C93.6959 23.7601 93.7418 23.7601 93.7418 23.7601V24.0971H86.6868V23.7601H86.9621C87.3521 23.7601 87.7077 23.5804 88.0289 23.2209C88.3501 22.8389 88.3846 22.3109 88.1322 21.6369Z" fill="white"/>
<path d="M117.594 3.40393L117.904 5.59458L109.851 21.1313C109.851 21.1313 109.759 21.3223 109.575 21.7043C109.415 22.0862 109.243 22.5468 109.059 23.0861C108.876 23.6028 108.738 24.0971 108.646 24.569H108.302L107.82 22.4457L117.594 3.40393ZM97.4271 21.8391V24.0971H93.8479V23.7601C93.8479 23.7601 93.9283 23.7601 94.0889 23.7601C94.2724 23.7601 94.3642 23.7601 94.3642 23.7601C94.9607 23.7601 95.4769 23.5916 95.9128 23.2546C96.3717 22.9176 96.6355 22.4457 96.7044 21.8391H97.4271ZM98.4595 22.3446C98.4366 22.6816 98.5169 23.0074 98.7004 23.322C98.8839 23.6141 99.2281 23.7714 99.7328 23.7938H100.215V24.0971H98.253V22.3446H98.4595ZM99.3887 3.40393H99.7328L100.421 5.39237L98.2874 24.0971H96.3946L99.3887 3.40393ZM99.7328 3.40393L109.094 21.0302L108.302 24.569L99.079 7.11119L99.7328 3.40393ZM117.904 3.40393L121.001 24.0971H118.386L116.149 7.14489L117.594 3.40393H117.904ZM119.969 21.8391H120.657C120.749 22.4457 121.024 22.9176 121.483 23.2546C121.942 23.5916 122.458 23.7601 123.032 23.7601C123.032 23.7601 123.112 23.7601 123.272 23.7601C123.456 23.7601 123.548 23.7601 123.548 23.7601V24.0971H119.969V21.8391ZM118.145 22.3446H118.386V24.0971H116.389V23.7938H116.906C117.433 23.7714 117.778 23.6028 117.938 23.2883C118.122 22.9737 118.191 22.6592 118.145 22.3446Z" fill="white"/>
<path d="M135.349 3.40393L144.813 23.8949H142.095L134.764 6.40344L135.349 3.40393ZM128.707 21.6369C128.455 22.3109 128.49 22.8389 128.811 23.2209C129.132 23.5804 129.499 23.7601 129.912 23.7601H130.187V24.0971H123.614V23.7601C123.614 23.7601 123.66 23.7601 123.752 23.7601C123.844 23.7601 123.889 23.7601 123.889 23.7601C124.371 23.7601 124.865 23.6028 125.369 23.2883C125.874 22.9513 126.31 22.4008 126.677 21.6369H128.707ZM135.349 3.40393L135.59 5.72939L127.709 23.996H125.541L133.698 6.87527C133.698 6.87527 133.755 6.74046 133.87 6.47084C134.007 6.20122 134.156 5.87543 134.317 5.49347C134.501 5.08905 134.661 4.69585 134.799 4.31389C134.937 3.93194 135.017 3.62861 135.04 3.40393H135.349ZM139.41 16.2445V17.2556H130.291V16.2445H139.41ZM141.166 21.6369H143.781C144.125 22.4008 144.55 22.9513 145.054 23.2883C145.559 23.6028 146.041 23.7601 146.5 23.7601C146.5 23.7601 146.546 23.7601 146.637 23.7601C146.729 23.7601 146.775 23.7601 146.775 23.7601V24.0971H139.72V23.7601H139.995C140.385 23.7601 140.741 23.5804 141.062 23.2209C141.384 22.8389 141.418 22.3109 141.166 21.6369Z" fill="white"/>
<path d="M150.942 0L170.937 20.8954L171.247 24.569L151.252 3.70725L150.942 0ZM151.011 21.7043V24.0971H148.155V23.7601C148.155 23.7601 148.258 23.7601 148.464 23.7601C148.671 23.7601 148.786 23.7601 148.809 23.7601C149.382 23.7601 149.875 23.5579 150.288 23.1535C150.701 22.7491 150.908 22.266 150.908 21.7043H151.011ZM152.491 21.7043C152.491 22.266 152.697 22.7491 153.11 23.1535C153.523 23.5579 154.017 23.7601 154.59 23.7601C154.613 23.7601 154.728 23.7601 154.934 23.7601C155.141 23.7601 155.244 23.7601 155.244 23.7601V24.0971H152.388V21.7043H152.491ZM150.942 0L152.456 1.88733L152.491 24.0971H150.908V4.21279C150.908 3.06691 150.85 2.07831 150.736 1.24699C150.644 0.415662 150.598 0 150.598 0H150.942ZM171.247 0.505534V20.2551C171.247 20.9741 171.27 21.6706 171.316 22.3446C171.362 22.9962 171.407 23.5354 171.453 23.9623C171.522 24.3668 171.557 24.569 171.557 24.569H171.247L169.698 22.7828V0.505534H171.247ZM174 0.505534V0.842557C174 0.842557 173.897 0.842557 173.69 0.842557C173.484 0.842557 173.381 0.842557 173.381 0.842557C172.807 0.842557 172.314 1.04477 171.901 1.4492C171.488 1.83116 171.27 2.31422 171.247 2.8984H171.144V0.505534H174ZM166.911 0.505534H169.767V2.8984H169.698C169.675 2.31422 169.457 1.83116 169.044 1.4492C168.654 1.04477 168.161 0.842557 167.564 0.842557C167.564 0.842557 167.461 0.842557 167.255 0.842557C167.048 0.842557 166.934 0.842557 166.911 0.842557V0.505534Z" fill="white"/>
<path fill-rule="evenodd" clip-rule="evenodd" d="M13.1216 43.8815H0.136498V42.9117H13.1216V43.8815Z" fill="white"/>
<path d="M22.9902 48C22.315 48 21.6658 47.8922 21.0425 47.6767C20.4279 47.4526 19.9517 47.1681 19.6141 46.8233L19.9907 46.0862C20.311 46.3966 20.7395 46.6595 21.2762 46.875C21.8216 47.0819 22.3929 47.1853 22.9902 47.1853C23.5616 47.1853 24.0247 47.1164 24.3796 46.9785C24.7432 46.8319 25.0073 46.6379 25.1717 46.3966C25.3449 46.1552 25.4314 45.8879 25.4314 45.5948C25.4314 45.2414 25.3276 44.9569 25.1198 44.7414C24.9207 44.5259 24.6567 44.3578 24.3277 44.2371C23.9988 44.1078 23.6352 43.9957 23.237 43.9009C22.8388 43.806 22.4405 43.7069 22.0423 43.6034C21.6441 43.4914 21.2762 43.3448 20.9386 43.1638C20.6096 42.9828 20.3413 42.7457 20.1335 42.4526C19.9344 42.1509 19.8349 41.7586 19.8349 41.2759C19.8349 40.8276 19.9517 40.4181 20.1855 40.0474C20.4279 39.6681 20.7958 39.3664 21.2892 39.1422C21.7826 38.9095 22.4146 38.7931 23.185 38.7931C23.6958 38.7931 24.2022 38.8664 24.7043 39.0129C25.2064 39.1509 25.6392 39.3448 26.0028 39.5948L25.6782 40.3578C25.2886 40.0991 24.8731 39.9095 24.4316 39.7888C23.9988 39.6681 23.5789 39.6078 23.172 39.6078C22.6267 39.6078 22.1765 39.681 21.8216 39.8276C21.4667 39.9741 21.2026 40.1724 21.0295 40.4224C20.865 40.6638 20.7828 40.9397 20.7828 41.25C20.7828 41.6034 20.8823 41.8879 21.0814 42.1035C21.2892 42.319 21.5576 42.4871 21.8865 42.6078C22.2241 42.7284 22.592 42.8362 22.9902 42.931C23.3885 43.0259 23.7823 43.1293 24.1719 43.2414C24.5701 43.3535 24.9337 43.5 25.2626 43.681C25.6002 43.8535 25.8686 44.0862 26.0677 44.3793C26.2755 44.6724 26.3793 45.056 26.3793 45.5302C26.3793 45.9698 26.2582 46.3793 26.0158 46.7586C25.7734 47.1293 25.4011 47.431 24.8991 47.6638C24.4056 47.8879 23.7693 48 22.9902 48Z" fill="white"/>
<path d="M28.473 47.9224V38.8707H31.8751C32.6455 38.8707 33.3078 38.9957 33.8618 39.2457C34.4158 39.4871 34.84 39.8405 35.1343 40.306C35.4373 40.7629 35.5888 41.319 35.5888 41.9741C35.5888 42.6121 35.4373 43.1638 35.1343 43.6293C34.84 44.0862 34.4158 44.4397 33.8618 44.6897C33.3078 44.9397 32.6455 45.0647 31.8751 45.0647H29.0054L29.4339 44.6121V47.9224H28.473ZM29.4339 44.6897L29.0054 44.2241H31.8491C32.7581 44.2241 33.4463 44.0302 33.9137 43.6422C34.3899 43.2457 34.6279 42.6897 34.6279 41.9741C34.6279 41.25 34.3899 40.6897 33.9137 40.2931C33.4463 39.8965 32.7581 39.6983 31.8491 39.6983H29.0054L29.4339 39.2457V44.6897Z" fill="white"/>
<path d="M38.5235 42.9181H43.328V43.7328H38.5235V42.9181ZM38.6274 47.0948H44.0941V47.9224H37.6665V38.8707H43.8994V39.6983H38.6274V47.0948Z" fill="white"/>
<path d="M50.2749 48C49.591 48 48.9591 47.8879 48.3791 47.6638C47.7991 47.431 47.297 47.1078 46.8728 46.694C46.4487 46.2802 46.1154 45.7931 45.873 45.2328C45.6393 44.6724 45.5224 44.0603 45.5224 43.3965C45.5224 42.7328 45.6393 42.1207 45.873 41.5603C46.1154 41 46.4487 40.5129 46.8728 40.0991C47.3057 39.6853 47.8121 39.3664 48.3921 39.1422C48.9721 38.9095 49.604 38.7931 50.2879 38.7931C50.9458 38.7931 51.5648 38.9052 52.1448 39.1293C52.7248 39.3448 53.2139 39.6724 53.6121 40.1121L53.0018 40.7198C52.6296 40.3405 52.2184 40.069 51.7682 39.9052C51.3181 39.7328 50.8333 39.6465 50.3139 39.6465C49.7685 39.6465 49.2621 39.7414 48.7946 39.931C48.3272 40.1121 47.9203 40.375 47.574 40.7198C47.2278 41.056 46.9551 41.4526 46.756 41.9095C46.5655 42.3578 46.4703 42.8534 46.4703 43.3965C46.4703 43.9397 46.5655 44.4397 46.756 44.8966C46.9551 45.3448 47.2278 45.7414 47.574 46.0862C47.9203 46.4224 48.3272 46.6853 48.7946 46.875C49.2621 47.056 49.7685 47.1466 50.3139 47.1466C50.8333 47.1466 51.3181 47.0603 51.7682 46.8879C52.2184 46.7155 52.6296 46.4397 53.0018 46.0603L53.6121 46.6681C53.2139 47.1078 52.7248 47.4397 52.1448 47.6638C51.5648 47.8879 50.9415 48 50.2749 48Z" fill="white"/>
<path d="M55.6605 47.9224V38.8707H56.6214V47.9224H55.6605Z" fill="white"/>
<path d="M58.1245 47.9224L62.2797 38.8707H63.2276L67.3829 47.9224H66.37L62.5524 39.4267H62.942L59.1244 47.9224H58.1245ZM59.7606 45.5043L60.0463 44.7284H65.3312L65.6169 45.5043H59.7606Z" fill="white"/>
<path d="M68.8865 47.9224V38.8707H69.8474V47.0948H74.9375V47.9224H68.8865Z" fill="white"/>
<path d="M76.533 47.9224V38.8707H77.4939V47.9224H76.533Z" fill="white"/>
<path d="M79.5554 47.9224V47.2629L85.8661 39.3362L85.97 39.6983H79.6463V38.8707H86.853V39.5302L80.5552 47.4569L80.4383 47.0948H87.0088V47.9224H79.5554Z" fill="white"/>
<path d="M89.7664 42.9181H94.5709V43.7328H89.7664V42.9181ZM89.8703 47.0948H95.337V47.9224H88.9094V38.8707H95.1422V39.6983H89.8703V47.0948Z" fill="white"/>
<path d="M97.5957 47.9224V38.8707H101.296C102.266 38.8707 103.114 39.0647 103.842 39.4526C104.577 39.8319 105.149 40.3621 105.556 41.0431C105.962 41.7241 106.166 42.5086 106.166 43.3965C106.166 44.2845 105.962 45.069 105.556 45.75C105.149 46.431 104.577 46.9655 103.842 47.3535C103.114 47.7328 102.266 47.9224 101.296 47.9224H97.5957ZM98.5566 47.0948H101.244C102.05 47.0948 102.746 46.9397 103.335 46.6293C103.932 46.3103 104.396 45.875 104.725 45.3233C105.053 44.7629 105.218 44.1207 105.218 43.3965C105.218 42.6638 105.053 42.0215 104.725 41.4698C104.396 40.9181 103.932 40.4871 103.335 40.1767C102.746 39.8578 102.05 39.6983 101.244 39.6983H98.5566V47.0948Z" fill="white"/>
<path d="M115.669 48C114.986 48 114.354 47.8879 113.774 47.6638C113.194 47.431 112.692 47.1078 112.267 46.694C111.843 46.2802 111.51 45.7931 111.268 45.2328C111.034 44.6724 110.917 44.0603 110.917 43.3965C110.917 42.7328 111.034 42.1207 111.268 41.5603C111.51 41 111.843 40.5129 112.267 40.0991C112.7 39.6853 113.207 39.3664 113.787 39.1422C114.367 38.9095 114.999 38.7931 115.682 38.7931C116.34 38.7931 116.959 38.9052 117.539 39.1293C118.119 39.3448 118.608 39.6724 119.007 40.1121L118.396 40.7198C118.024 40.3405 117.613 40.069 117.163 39.9052C116.713 39.7328 116.228 39.6465 115.708 39.6465C115.163 39.6465 114.657 39.7414 114.189 39.931C113.722 40.1121 113.315 40.375 112.969 40.7198C112.622 41.056 112.35 41.4526 112.151 41.9095C111.96 42.3578 111.865 42.8534 111.865 43.3965C111.865 43.9397 111.96 44.4397 112.151 44.8966C112.35 45.3448 112.622 45.7414 112.969 46.0862C113.315 46.4224 113.722 46.6853 114.189 46.875C114.657 47.056 115.163 47.1466 115.708 47.1466C116.228 47.1466 116.713 47.0603 117.163 46.8879C117.613 46.7155 118.024 46.4397 118.396 46.0603L119.007 46.6681C118.608 47.1078 118.119 47.4397 117.539 47.6638C116.959 47.8879 116.336 48 115.669 48Z" fill="white"/>
<path d="M121.055 47.9224V38.8707H122.016V47.0948H127.106V47.9224H121.055Z" fill="white"/>
<path d="M128.702 47.9224V38.8707H129.662V47.9224H128.702Z" fill="white"/>
<path d="M132.62 47.9224V38.8707H133.412L139.684 46.7328H139.268V38.8707H140.216V47.9224H139.424L133.165 40.0603H133.581V47.9224H132.62Z" fill="white"/>
<path d="M143.183 47.9224V38.8707H144.144V47.9224H143.183Z" fill="white"/>
<path d="M151.049 48C150.365 48 149.733 47.8879 149.153 47.6638C148.573 47.431 148.071 47.1078 147.647 46.694C147.222 46.2802 146.889 45.7931 146.647 45.2328C146.413 44.6724 146.296 44.0603 146.296 43.3965C146.296 42.7328 146.413 42.1207 146.647 41.5603C146.889 41 147.222 40.5129 147.647 40.0991C148.079 39.6853 148.586 39.3664 149.166 39.1422C149.746 38.9095 150.378 38.7931 151.062 38.7931C151.72 38.7931 152.339 38.9052 152.919 39.1293C153.499 39.3448 153.988 39.6724 154.386 40.1121L153.776 40.7198C153.403 40.3405 152.992 40.069 152.542 39.9052C152.092 39.7328 151.607 39.6465 151.088 39.6465C150.542 39.6465 150.036 39.7414 149.568 39.931C149.101 40.1121 148.694 40.375 148.348 40.7198C148.002 41.056 147.729 41.4526 147.53 41.9095C147.339 42.3578 147.244 42.8534 147.244 43.3965C147.244 43.9397 147.339 44.4397 147.53 44.8966C147.729 45.3448 148.002 45.7414 148.348 46.0862C148.694 46.4224 149.101 46.6853 149.568 46.875C150.036 47.056 150.542 47.1466 151.088 47.1466C151.607 47.1466 152.092 47.0603 152.542 46.8879C152.992 46.7155 153.403 46.4397 153.776 46.0603L154.386 46.6681C153.988 47.1078 153.499 47.4397 152.919 47.6638C152.339 47.8879 151.715 48 151.049 48Z" fill="white"/>
<path fill-rule="evenodd" clip-rule="evenodd" d="M173.864 43.8815H160.878V42.9117H173.864V43.8815Z" fill="white"/>
</svg>
