<svg width="146" height="41" viewBox="0 0 146 41" fill="none" xmlns="http://www.w3.org/2000/svg">
<g id="logo">
<g id="Vector">
<path d="M10.6555 0.0283967L19.2029 20.1336H16.7484L10.0779 2.72612L10.6555 0.0283967ZM4.44699 18.2309C4.31224 18.6096 4.29299 18.9314 4.38924 19.1964C4.4855 19.4615 4.6395 19.6697 4.85127 19.8212C5.08228 19.9537 5.31329 20.02 5.5443 20.02H5.80419V20.3039H0V20.02C0 20.02 0.0481276 20.02 0.144383 20.02C0.221387 20.02 0.259889 20.02 0.259889 20.02C0.702664 20.02 1.15506 19.8874 1.61709 19.6224C2.09837 19.3384 2.49301 18.8746 2.80103 18.2309H4.44699ZM10.6555 0.0283967L10.9153 2.01619L3.66733 20.2187H1.93473L9.32714 2.9533C9.32714 2.9533 9.37526 2.83971 9.47152 2.61253C9.58702 2.36643 9.71216 2.07299 9.84692 1.73222C10.0009 1.39146 10.1261 1.06016 10.2223 0.738325C10.3378 0.416491 10.3956 0.179848 10.3956 0.0283967H10.6555ZM14.7271 12.5515V13.4034H5.68869V12.5515H14.7271ZM16.0265 18.2309H18.3944C18.6831 18.8746 19.0682 19.3384 19.5494 19.6224C20.0307 19.8874 20.4927 20.02 20.9355 20.02C20.9355 20.02 20.974 20.02 21.051 20.02C21.128 20.02 21.1665 20.02 21.1665 20.02V20.3039H14.6693V20.02H14.9292C15.295 20.02 15.6222 19.8685 15.911 19.5656C16.1998 19.2438 16.2383 18.7989 16.0265 18.2309Z" fill="black"/>
<path d="M25.9576 3.26567H29.6826C30.5874 3.26567 31.396 3.36979 32.1083 3.57804C32.8398 3.78628 33.4559 4.08918 33.9564 4.48674C34.4762 4.8843 34.8708 5.36705 35.1403 5.935C35.4098 6.50294 35.5446 7.14661 35.5446 7.866C35.5446 8.66112 35.3521 9.39944 34.9671 10.081C34.582 10.7625 34.043 11.321 33.35 11.7564C32.6762 12.1918 31.9061 12.4569 31.0398 12.5515C31.3671 12.684 31.7425 12.9775 32.166 13.4318C32.6088 13.8862 32.9842 14.3311 33.2922 14.7665C33.2922 14.7665 33.4173 14.9369 33.6676 15.2776C33.9179 15.5995 34.2355 16.0065 34.6205 16.4987C35.0248 16.972 35.4195 17.4264 35.8045 17.8618C36.2088 18.2972 36.5745 18.6758 36.9018 18.9977C37.2483 19.3195 37.6141 19.5751 37.9991 19.7644C38.4034 19.9348 38.8654 20.02 39.3852 20.02V20.3039H38.49C37.4312 20.3039 36.5553 20.1714 35.8622 19.9064C35.1884 19.6413 34.6398 19.3195 34.2163 18.9409C33.7927 18.5433 33.427 18.1647 33.119 17.805C33.042 17.7103 32.8591 17.4737 32.5703 17.0951C32.3008 16.6975 32.0024 16.2715 31.6751 15.8172C31.3479 15.3628 31.0495 14.9558 30.78 14.5961C30.5104 14.2175 30.3468 13.9903 30.2891 13.9146C29.904 13.4224 29.4613 12.9869 28.9607 12.6083C28.4602 12.2108 27.9308 12.012 27.3725 12.012V11.728C27.3725 11.728 27.5265 11.7375 27.8345 11.7564C28.1426 11.7564 28.5372 11.7469 29.0185 11.728C29.5575 11.7091 30.0965 11.6712 30.6356 11.6144C31.1746 11.5387 31.6751 11.3304 32.1372 10.9897C32.6184 10.6489 32.9938 10.081 33.2633 9.28586C33.3403 9.07761 33.3981 8.8315 33.4366 8.54753C33.4751 8.26356 33.4847 7.97012 33.4655 7.66722C33.4462 7.13714 33.3403 6.66385 33.1478 6.24736C32.9746 5.83087 32.7147 5.47118 32.3682 5.16827C32.0409 4.86537 31.6463 4.62873 31.1842 4.45835C30.7222 4.28796 30.2024 4.19331 29.6249 4.17438C28.7201 4.13651 27.9308 4.12705 27.257 4.14598C26.5832 4.16491 26.2463 4.16491 26.2463 4.14598C26.2463 4.12705 26.2175 4.05132 26.1597 3.9188C26.1212 3.76735 26.0731 3.62536 26.0153 3.49285C25.9768 3.34139 25.9576 3.26567 25.9576 3.26567ZM26.3041 3.26567V20.3039H24.456V3.26567H26.3041ZM24.5426 18.4865L24.8891 20.3039H22.4346V20.02C22.4346 20.02 22.502 20.02 22.6368 20.02C22.7715 20.02 22.8389 20.02 22.8389 20.02C23.3009 20.02 23.6859 19.8685 23.994 19.5656C24.302 19.2627 24.4656 18.903 24.4849 18.4865H24.5426ZM24.5426 5.05469H24.4849C24.4656 4.61926 24.302 4.25957 23.994 3.97559C23.6859 3.69162 23.3009 3.54964 22.8389 3.54964C22.8389 3.54964 22.7715 3.54964 22.6368 3.54964C22.502 3.54964 22.4346 3.54964 22.4346 3.54964V3.26567H24.8891L24.5426 5.05469ZM26.2175 18.4865H26.3041C26.3233 18.903 26.487 19.2627 26.795 19.5656C27.103 19.8685 27.488 20.02 27.95 20.02C27.95 20.02 28.0078 20.02 28.1233 20.02C28.2581 20.02 28.3254 20.02 28.3254 20.02L28.3543 20.3039H25.8709L26.2175 18.4865Z" fill="black"/>
<path d="M48.8508 2.86811C49.7364 2.86811 50.5642 2.93437 51.3342 3.06689C52.1235 3.18048 52.8647 3.36979 53.5577 3.63483C54.27 3.88094 54.9438 4.20277 55.5791 4.60033L56.2144 8.60432H55.9545C55.685 7.48737 55.2422 6.5692 54.6261 5.84981C54.0294 5.13041 53.2497 4.60033 52.2871 4.25957C51.3246 3.89987 50.1695 3.72002 48.8219 3.72002C47.3589 3.72002 46.0691 4.05132 44.9525 4.71392C43.8552 5.35759 42.9985 6.28523 42.3825 7.49684C41.7664 8.68952 41.4584 10.1188 41.4584 11.7848C41.4584 13.4318 41.7664 14.8612 42.3825 16.0728C42.9985 17.2844 43.8648 18.2215 44.9814 18.8841C46.0979 19.5277 47.3877 19.8496 48.8508 19.8496C49.6594 19.8496 50.4294 19.7644 51.161 19.594C51.8925 19.4236 52.5952 19.1586 53.2689 18.7989C53.962 18.4203 54.6069 17.947 55.2037 17.379L55.2326 13.6022C55.2518 13.2425 55.1363 12.968 54.886 12.7787C54.655 12.5894 54.3278 12.4947 53.9042 12.4947H53.5V12.2108H58.7844V12.4947H58.3801C57.5138 12.4947 57.0807 12.8734 57.0807 13.6306V17.0383C56.6379 17.5873 56.0315 18.1458 55.2614 18.7137C54.4914 19.2816 53.5673 19.7549 52.4893 20.1336C51.4305 20.5122 50.2177 20.7015 48.8508 20.7015C46.945 20.6826 45.2798 20.3134 43.8552 19.594C42.4499 18.8746 41.3525 17.8523 40.5632 16.5271C39.774 15.2019 39.3793 13.6211 39.3793 11.7848C39.3793 9.92952 39.774 8.33928 40.5632 7.01409C41.3525 5.68889 42.4595 4.66659 43.8841 3.9472C45.3086 3.2278 46.9642 2.86811 48.8508 2.86811Z" fill="black"/>
<path d="M69.0698 2.86811L77.0109 20.1336H74.7297L68.5789 5.39545L69.0698 2.86811ZM63.4967 18.2309C63.2849 18.7989 63.3138 19.2438 63.5833 19.5656C63.8528 19.8685 64.1608 20.02 64.5073 20.02H64.7384V20.3039H59.2229V20.02C59.2229 20.02 59.2614 20.02 59.3384 20.02C59.4154 20.02 59.4539 20.02 59.4539 20.02C59.8582 20.02 60.2721 19.8874 60.6956 19.6224C61.1192 19.3384 61.4849 18.8746 61.793 18.2309H63.4967ZM69.0698 2.86811L69.272 4.82751L62.6593 20.2187H60.84L67.6838 5.79301C67.6838 5.79301 67.7319 5.67942 67.8282 5.45225C67.9437 5.22507 68.0688 4.95056 68.2036 4.62873C68.3576 4.28796 68.4923 3.95666 68.6078 3.63483C68.7233 3.313 68.7907 3.05742 68.81 2.86811H69.0698ZM72.4773 13.6874V14.5393H64.825V13.6874H72.4773ZM73.95 18.2309H76.1446C76.4334 18.8746 76.7895 19.3384 77.213 19.6224C77.6366 19.8874 78.0408 20.02 78.4259 20.02C78.4259 20.02 78.4644 20.02 78.5414 20.02C78.6184 20.02 78.6569 20.02 78.6569 20.02V20.3039H72.7372V20.02H72.9682C73.2955 20.02 73.5938 19.8685 73.8634 19.5656C74.1329 19.2438 74.1618 18.7989 73.95 18.2309Z" fill="black"/>
<path d="M98.6708 2.86811L98.9307 4.71392L92.1736 17.805C92.1736 17.805 92.0966 17.9659 91.9426 18.2877C91.8078 18.6096 91.6634 18.9977 91.5094 19.452C91.3554 19.8874 91.2399 20.3039 91.1629 20.7015H90.8741L90.4699 18.9125L98.6708 2.86811ZM81.7492 18.4013V20.3039H78.746V20.02C78.746 20.02 78.8134 20.02 78.9481 20.02C79.1021 20.02 79.1791 20.02 79.1791 20.02C79.6797 20.02 80.1128 19.878 80.4786 19.594C80.8636 19.31 81.085 18.9125 81.1427 18.4013H81.7492ZM82.6154 18.8273C82.5962 19.1113 82.6636 19.3858 82.8176 19.6508C82.9716 19.8969 83.2604 20.0294 83.6839 20.0484H84.0882V20.3039H82.4422V18.8273H82.6154ZM83.3951 2.86811H83.6839L84.2614 4.54354L82.4711 20.3039H80.8829L83.3951 2.86811ZM83.6839 2.86811L91.5383 17.7198L90.8741 20.7015L83.1352 5.99179L83.6839 2.86811ZM98.9307 2.86811L101.53 20.3039H99.335L97.458 6.02019L98.6708 2.86811H98.9307ZM100.663 18.4013H101.241C101.318 18.9125 101.549 19.31 101.934 19.594C102.319 19.878 102.752 20.02 103.233 20.02C103.233 20.02 103.301 20.02 103.435 20.02C103.589 20.02 103.666 20.02 103.666 20.02V20.3039H100.663V18.4013ZM99.1329 18.8273H99.335V20.3039H97.6601V20.0484H98.0933C98.5361 20.0294 98.8248 19.8874 98.9596 19.6224C99.1136 19.3574 99.1713 19.0923 99.1329 18.8273Z" fill="black"/>
<path d="M113.569 2.86811L121.51 20.1336H119.229L113.078 5.39545L113.569 2.86811ZM107.996 18.2309C107.784 18.7989 107.813 19.2438 108.083 19.5656C108.352 19.8685 108.66 20.02 109.007 20.02H109.238V20.3039H103.722V20.02C103.722 20.02 103.761 20.02 103.838 20.02C103.915 20.02 103.953 20.02 103.953 20.02C104.357 20.02 104.771 19.8874 105.195 19.6224C105.618 19.3384 105.984 18.8746 106.292 18.2309H107.996ZM113.569 2.86811L113.771 4.82751L107.159 20.2187H105.339L112.183 5.79301C112.183 5.79301 112.231 5.67942 112.327 5.45225C112.443 5.22507 112.568 4.95056 112.703 4.62873C112.857 4.28796 112.992 3.95666 113.107 3.63483C113.223 3.313 113.29 3.05742 113.309 2.86811H113.569ZM116.977 13.6874V14.5393H109.324V13.6874H116.977ZM118.449 18.2309H120.644C120.933 18.8746 121.289 19.3384 121.712 19.6224C122.136 19.8874 122.54 20.02 122.925 20.02C122.925 20.02 122.964 20.02 123.041 20.02C123.118 20.02 123.156 20.02 123.156 20.02V20.3039H117.236V20.02H117.467C117.795 20.02 118.093 19.8685 118.363 19.5656C118.632 19.2438 118.661 18.7989 118.449 18.2309Z" fill="black"/>
<path d="M126.653 0L143.43 17.6062L143.69 20.7015L126.913 3.12368L126.653 0ZM126.71 18.2877V20.3039H124.314V20.02C124.314 20.02 124.4 20.02 124.574 20.02C124.747 20.02 124.843 20.02 124.862 20.02C125.344 20.02 125.758 19.8496 126.104 19.5088C126.451 19.168 126.624 18.761 126.624 18.2877H126.71ZM127.952 18.2877C127.952 18.761 128.125 19.168 128.472 19.5088C128.818 19.8496 129.232 20.02 129.714 20.02C129.733 20.02 129.829 20.02 130.002 20.02C130.176 20.02 130.262 20.02 130.262 20.02V20.3039H127.866V18.2877H127.952ZM126.653 0L127.923 1.59024L127.952 20.3039H126.624V3.54964C126.624 2.58414 126.576 1.75116 126.479 1.05069C126.402 0.350231 126.364 0 126.364 0H126.653ZM143.69 0.425956V17.0667C143.69 17.6725 143.709 18.2593 143.748 18.8273C143.786 19.3763 143.825 19.8306 143.863 20.1903C143.921 20.5311 143.95 20.7015 143.95 20.7015H143.69L142.39 19.1964V0.425956H143.69ZM146 0.425956V0.709927C146 0.709927 145.913 0.709927 145.74 0.709927C145.567 0.709927 145.48 0.709927 145.48 0.709927C144.999 0.709927 144.585 0.88031 144.239 1.22108C143.892 1.54291 143.709 1.94993 143.69 2.44215H143.603V0.425956H146ZM140.051 0.425956H142.448V2.44215H142.39C142.371 1.94993 142.188 1.54291 141.842 1.22108C141.514 0.88031 141.101 0.709927 140.6 0.709927C140.6 0.709927 140.513 0.709927 140.34 0.709927C140.167 0.709927 140.071 0.709927 140.051 0.709927V0.425956Z" fill="black"/>
<path fill-rule="evenodd" clip-rule="evenodd" d="M11.0101 36.974H0.114532V36.1568H11.0101V36.974Z" fill="black"/>
<path d="M19.2907 40.4442C18.7241 40.4442 18.1793 40.3534 17.6563 40.1718C17.1406 39.9829 16.7411 39.7432 16.4578 39.4527L16.7738 38.8316C17.0426 39.0931 17.4021 39.3147 17.8525 39.4963C18.3101 39.6706 18.7895 39.7577 19.2907 39.7577C19.7701 39.7577 20.1587 39.6996 20.4565 39.5834C20.7616 39.4599 20.9831 39.2965 21.1211 39.0931C21.2664 38.8897 21.339 38.6646 21.339 38.4176C21.339 38.1198 21.2519 37.8801 21.0775 37.6985C20.9105 37.5169 20.6889 37.3753 20.4129 37.2736C20.1369 37.1646 19.8318 37.0702 19.4977 36.9903C19.1635 36.9104 18.8294 36.8269 18.4953 36.7397C18.1612 36.6453 17.8525 36.5218 17.5692 36.3692C17.2932 36.2167 17.068 36.0169 16.8937 35.77C16.7266 35.5158 16.6431 35.1853 16.6431 34.7785C16.6431 34.4008 16.7411 34.0558 16.9372 33.7434C17.1406 33.4238 17.4493 33.1696 17.8634 32.9807C18.2774 32.7846 18.8076 32.6866 19.4541 32.6866C19.8827 32.6866 20.3076 32.7483 20.7289 32.8718C21.1502 32.988 21.5134 33.1514 21.8184 33.3621L21.546 34.0049C21.2192 33.787 20.8705 33.6272 20.5001 33.5255C20.1369 33.4238 19.7846 33.373 19.4432 33.373C18.9856 33.373 18.6079 33.4347 18.3101 33.5582C18.0123 33.6817 17.7907 33.8487 17.6454 34.0594C17.5074 34.2628 17.4384 34.4952 17.4384 34.7567C17.4384 35.0545 17.522 35.2942 17.689 35.4758C17.8633 35.6574 18.0885 35.799 18.3645 35.9007C18.6478 36.0024 18.9565 36.0932 19.2907 36.1731C19.6248 36.253 19.9553 36.3402 20.2822 36.4346C20.6163 36.529 20.9214 36.6525 21.1974 36.8051C21.4807 36.9503 21.7058 37.1465 21.8729 37.3934C22.0472 37.6404 22.1344 37.9636 22.1344 38.3631C22.1344 38.7336 22.0327 39.0786 21.8293 39.3982C21.6259 39.7105 21.3136 39.9648 20.8923 40.1609C20.4783 40.3497 19.9444 40.4442 19.2907 40.4442Z" fill="black"/>
<path d="M23.8911 40.3788V32.7519H26.7458C27.3922 32.7519 27.9479 32.8572 28.4128 33.0679C28.8776 33.2713 29.2336 33.5691 29.4805 33.9613C29.7348 34.3463 29.8619 34.8148 29.8619 35.3669C29.8619 35.9044 29.7348 36.3692 29.4805 36.7615C29.2336 37.1465 28.8776 37.4443 28.4128 37.6549C27.9479 37.8656 27.3922 37.9709 26.7458 37.9709H24.3378L24.6974 37.5895V40.3788H23.8911ZM24.6974 37.6549L24.3378 37.2627H26.724C27.4867 37.2627 28.0641 37.0992 28.4564 36.7724C28.8559 36.4382 29.0556 35.9697 29.0556 35.3669C29.0556 34.7567 28.8559 34.2846 28.4564 33.9504C28.0641 33.6163 27.4867 33.4492 26.724 33.4492H24.3378L24.6974 33.0679V37.6549Z" fill="black"/>
<path d="M32.3243 36.1622H36.3557V36.8486H32.3243V36.1622ZM32.4115 39.6815H36.9985V40.3788H31.6052V32.7519H36.8351V33.4492H32.4115V39.6815Z" fill="black"/>
<path d="M42.1847 40.4442C41.6109 40.4442 41.0806 40.3497 40.594 40.1609C40.1073 39.9648 39.686 39.6924 39.3301 39.3437C38.9742 38.9951 38.6945 38.5847 38.4911 38.1125C38.295 37.6404 38.1969 37.1247 38.1969 36.5654C38.1969 36.0061 38.295 35.4903 38.4911 35.0182C38.6945 34.5461 38.9742 34.1357 39.3301 33.787C39.6933 33.4383 40.1182 33.1696 40.6049 32.9807C41.0915 32.7846 41.6218 32.6866 42.1956 32.6866C42.7477 32.6866 43.267 32.781 43.7537 32.9698C44.2403 33.1514 44.6507 33.4274 44.9849 33.7979L44.4728 34.31C44.1604 33.9904 43.8154 33.7616 43.4377 33.6236C43.06 33.4783 42.6532 33.4057 42.2174 33.4057C41.7598 33.4057 41.3349 33.4856 40.9426 33.6454C40.5504 33.7979 40.209 34.0194 39.9184 34.31C39.6279 34.5933 39.3991 34.9274 39.232 35.3124C39.0722 35.6901 38.9923 36.1077 38.9923 36.5654C38.9923 37.023 39.0722 37.4443 39.232 37.8292C39.3991 38.207 39.6279 38.5411 39.9184 38.8316C40.209 39.1149 40.5504 39.3365 40.9426 39.4963C41.3349 39.6488 41.7598 39.7251 42.2174 39.7251C42.6532 39.7251 43.06 39.6524 43.4377 39.5071C43.8154 39.3619 44.1604 39.1294 44.4728 38.8098L44.9849 39.3219C44.6507 39.6924 44.2403 39.972 43.7537 40.1609C43.267 40.3497 42.744 40.4442 42.1847 40.4442Z" fill="black"/>
<path d="M46.7036 40.3788V32.7519H47.5099V40.3788H46.7036Z" fill="black"/>
<path d="M48.7711 40.3788L52.2577 32.7519H53.0531L56.5396 40.3788H55.6898L52.4865 33.2204H52.8134L49.6101 40.3788H48.7711ZM50.144 38.3413L50.3837 37.6876H54.8182L55.0579 38.3413H50.144Z" fill="black"/>
<path d="M57.8013 40.3788V32.7519H58.6076V39.6815H62.8786V40.3788H57.8013Z" fill="black"/>
<path d="M64.2173 40.3788V32.7519H65.0236V40.3788H64.2173Z" fill="black"/>
<path d="M66.7533 40.3788V39.8231L72.0486 33.1442L72.1357 33.4492H66.8296V32.7519H72.8766V33.3076L67.5923 39.9866L67.4942 39.6815H73.0074V40.3788H66.7533Z" fill="black"/>
<path d="M75.3212 36.1622H79.3526V36.8486H75.3212V36.1622ZM75.4084 39.6815H79.9954V40.3788H74.6021V32.7519H79.832V33.4492H75.4084V39.6815Z" fill="black"/>
<path d="M81.8906 40.3788V32.7519H84.9959C85.8094 32.7519 86.5212 32.9154 87.1314 33.2422C87.7488 33.5618 88.2282 34.0085 88.5696 34.5824C88.911 35.1562 89.0817 35.8172 89.0817 36.5654C89.0817 37.3135 88.911 37.9745 88.5696 38.5483C88.2282 39.1222 87.7488 39.5725 87.1314 39.8994C86.5212 40.219 85.8094 40.3788 84.9959 40.3788H81.8906ZM82.6969 39.6815H84.9523C85.6278 39.6815 86.2125 39.5507 86.7065 39.2892C87.2076 39.0205 87.5963 38.6537 87.8723 38.1888C88.1483 37.7167 88.2863 37.1755 88.2863 36.5654C88.2863 35.9479 88.1483 35.4068 87.8723 34.9419C87.5963 34.4771 87.2076 34.1139 86.7065 33.8524C86.2125 33.5836 85.6278 33.4492 84.9523 33.4492H82.6969V39.6815Z" fill="black"/>
<path d="M97.056 40.4442C96.4822 40.4442 95.9519 40.3497 95.4653 40.1609C94.9786 39.9648 94.5573 39.6924 94.2014 39.3437C93.8455 38.9951 93.5658 38.5847 93.3624 38.1125C93.1663 37.6404 93.0683 37.1247 93.0683 36.5654C93.0683 36.0061 93.1663 35.4903 93.3624 35.0182C93.5658 34.5461 93.8455 34.1357 94.2014 33.787C94.5646 33.4383 94.9895 33.1696 95.4762 32.9807C95.9628 32.7846 96.4931 32.6866 97.0669 32.6866C97.6189 32.6866 98.1383 32.781 98.625 32.9698C99.1116 33.1514 99.522 33.4274 99.8562 33.7979L99.3441 34.31C99.0317 33.9904 98.6867 33.7616 98.309 33.6236C97.9313 33.4783 97.5245 33.4057 97.0887 33.4057C96.6311 33.4057 96.2062 33.4856 95.8139 33.6454C95.4217 33.7979 95.0803 34.0194 94.7897 34.31C94.4992 34.5933 94.2704 34.9274 94.1033 35.3124C93.9435 35.6901 93.8636 36.1077 93.8636 36.5654C93.8636 37.023 93.9435 37.4443 94.1033 37.8292C94.2704 38.207 94.4992 38.5411 94.7897 38.8316C95.0803 39.1149 95.4217 39.3365 95.8139 39.4963C96.2062 39.6488 96.6311 39.7251 97.0887 39.7251C97.5245 39.7251 97.9313 39.6524 98.309 39.5071C98.6867 39.3619 99.0317 39.1294 99.3441 38.8098L99.8562 39.3219C99.522 39.6924 99.1116 39.972 98.625 40.1609C98.1383 40.3497 97.6153 40.4442 97.056 40.4442Z" fill="black"/>
<path d="M101.575 40.3788V32.7519H102.381V39.6815H106.652V40.3788H101.575Z" fill="black"/>
<path d="M107.991 40.3788V32.7519H108.797V40.3788H107.991Z" fill="black"/>
<path d="M111.279 40.3788V32.7519H111.943L117.206 39.3764H116.857V32.7519H117.653V40.3788H116.988L111.736 33.7543H112.085V40.3788H111.279Z" fill="black"/>
<path d="M120.142 40.3788V32.7519H120.948V40.3788H120.142Z" fill="black"/>
<path d="M126.742 40.4442C126.168 40.4442 125.638 40.3497 125.151 40.1609C124.665 39.9648 124.243 39.6924 123.887 39.3437C123.532 38.9951 123.252 38.5847 123.048 38.1125C122.852 37.6404 122.754 37.1247 122.754 36.5654C122.754 36.0061 122.852 35.4903 123.048 35.0182C123.252 34.5461 123.532 34.1357 123.887 33.787C124.251 33.4383 124.676 33.1696 125.162 32.9807C125.649 32.7846 126.179 32.6866 126.753 32.6866C127.305 32.6866 127.824 32.781 128.311 32.9698C128.798 33.1514 129.208 33.4274 129.542 33.7979L129.03 34.31C128.718 33.9904 128.373 33.7616 127.995 33.6236C127.617 33.4783 127.211 33.4057 126.775 33.4057C126.317 33.4057 125.892 33.4856 125.5 33.6454C125.108 33.7979 124.766 34.0194 124.476 34.31C124.185 34.5933 123.956 34.9274 123.789 35.3124C123.63 35.6901 123.55 36.1077 123.55 36.5654C123.55 37.023 123.63 37.4443 123.789 37.8292C123.956 38.207 124.185 38.5411 124.476 38.8316C124.766 39.1149 125.108 39.3365 125.5 39.4963C125.892 39.6488 126.317 39.7251 126.775 39.7251C127.211 39.7251 127.617 39.6524 127.995 39.5071C128.373 39.3619 128.718 39.1294 129.03 38.8098L129.542 39.3219C129.208 39.6924 128.798 39.972 128.311 40.1609C127.824 40.3497 127.301 40.4442 126.742 40.4442Z" fill="black"/>
<path fill-rule="evenodd" clip-rule="evenodd" d="M145.885 36.974H134.99V36.1568H145.885V36.974Z" fill="black"/>
</g>
</g>
</svg>
