<svg width="32" height="32" viewBox="0 0 32 32" fill="none" xmlns="http://www.w3.org/2000/svg">
<path fill-rule="evenodd" clip-rule="evenodd" d="M4.5835 9.33334C4.5835 8.91913 4.91928 8.58334 5.3335 8.58334H26.6668C27.081 8.58334 27.4168 8.91913 27.4168 9.33334C27.4168 9.74756 27.081 10.0833 26.6668 10.0833H5.3335C4.91928 10.0833 4.5835 9.74756 4.5835 9.33334ZM4.5835 16C4.5835 15.5858 4.91928 15.25 5.3335 15.25L26.6668 15.25C27.081 15.25 27.4168 15.5858 27.4168 16C27.4168 16.4142 27.081 16.75 26.6668 16.75L5.3335 16.75C4.91928 16.75 4.5835 16.4142 4.5835 16ZM5.3335 21.9167C4.91928 21.9167 4.5835 22.2525 4.5835 22.6667C4.5835 23.0809 4.91928 23.4167 5.3335 23.4167H26.6668C27.081 23.4167 27.4168 23.0809 27.4168 22.6667C27.4168 22.2525 27.081 21.9167 26.6668 21.9167H5.3335Z" fill="black"/>
</svg>
