<svg width="24" height="24" viewBox="0 0 24 24" fill="none" xmlns="http://www.w3.org/2000/svg">
<path fill-rule="evenodd" clip-rule="evenodd" d="M4.75 10.1482C4.75 7.63087 5.66985 5.80032 7.00337 4.59302C8.34965 3.37416 10.1636 2.75 12 2.75C13.8364 2.75 15.6504 3.37418 16.9966 4.59304C18.3301 5.80035 19.25 7.63089 19.25 10.1482C19.25 12.2832 18.4156 14.246 17.2611 15.9377C16.1069 17.6289 14.6597 19.0085 13.507 19.9598C12.6167 20.6944 11.3837 20.6944 10.4934 19.9598C9.34059 19.0085 7.89335 17.629 6.73903 15.9377C5.58441 14.246 4.75 12.2832 4.75 10.1482ZM20.75 10.1482C20.75 7.23337 19.6699 4.98983 18.0034 3.48107C16.3496 1.98387 14.1636 1.25001 12 1.25C9.83643 1.24999 7.65035 1.98385 5.99663 3.48105C4.33015 4.98981 3.25 7.23335 3.25 10.1482C3.25 12.6809 4.239 14.9356 5.5001 16.7833C6.76151 18.6315 8.32233 20.1131 9.53875 21.1168C10.9833 22.3088 13.0172 22.3088 14.4617 21.1167C15.678 20.113 17.2387 18.6314 18.5001 16.7833C19.7611 14.9356 20.75 12.6809 20.75 10.1482ZM9.75 10C9.75 8.75739 10.7574 7.75003 12 7.75003C13.2426 7.75003 14.25 8.75739 14.25 10C14.25 11.2427 13.2426 12.25 12 12.25C10.7574 12.25 9.75 11.2427 9.75 10ZM12 6.25003C9.92893 6.25003 8.25 7.92896 8.25 10C8.25 12.0711 9.92893 13.75 12 13.75C14.0711 13.75 15.75 12.0711 15.75 10C15.75 7.92896 14.0711 6.25003 12 6.25003Z" fill="#707070"/>
</svg>
