<svg version="1.1" xmlns="http://www.w3.org/2000/svg" xmlns:xlink="http://www.w3.org/1999/xlink" width="28" height="28" viewBox="0,0,256,256"><g fill="#000000" fill-rule="evenodd" stroke="none" stroke-width="1" stroke-linecap="butt" stroke-linejoin="miter" stroke-miterlimit="10" stroke-dasharray="" stroke-dashoffset="0" font-family="none" font-weight="none" font-size="none" text-anchor="none" style="mix-blend-mode: normal"><g transform="translate(255.99993,255.9999) rotate(180) scale(9.14286,9.14286)"><path d="M14.6363,6.46967c0.2929,-0.29289 0.7678,-0.29289 1.0607,0l7,7.00003c0.2929,0.2929 0.2929,0.7677 0,1.0606l-7,7c-0.2929,0.2929 -0.7678,0.2929 -1.0607,0c-0.2929,-0.2929 -0.2929,-0.7677 0,-1.0606l5.7197,-5.7197h-14.52269c-0.41421,0 -0.75,-0.3358 -0.75,-0.75c0,-0.4142 0.33579,-0.75 0.75,-0.75h14.52269l-5.7197,-5.71967c-0.2929,-0.29289 -0.2929,-0.76777 0,-1.06066z"></path></g></g></svg>