<svg version="1.1" xmlns="http://www.w3.org/2000/svg" xmlns:xlink="http://www.w3.org/1999/xlink" width="28" height="28" viewBox="0,0,256,256"><g fill="#9c1a30" fill-rule="evenodd" stroke="none" stroke-width="1" stroke-linecap="butt" stroke-linejoin="miter" stroke-miterlimit="10" stroke-dasharray="" stroke-dashoffset="0" font-family="none" font-weight="none" font-size="none" text-anchor="none" style="mix-blend-mode: normal"><g transform="translate(255.9996,255.9999) rotate(180) scale(9.14286,9.14286)"><path d="M13.3636,6.46967c0.2929,0.29289 0.2929,0.76777 0,1.06066l-5.71963,5.71967h14.52263c0.4143,0 0.75,0.3358 0.75,0.75c0,0.4142 -0.3357,0.75 -0.75,0.75h-14.52263l5.71963,5.7197c0.2929,0.2929 0.2929,0.7677 0,1.0606c-0.2929,0.2929 -0.7677,0.2929 -1.0606,0l-7.00002,-7c-0.29289,-0.2929 -0.29289,-0.7677 0,-1.0606l7.00002,-7.00003c0.2929,-0.29289 0.7677,-0.29289 1.0606,0z"></path></g></g></svg>