<svg xmlns="http://www.w3.org/2000/svg" width="20" height="20" viewBox="0 0 20 20" fill="none">
  <path d="M18.6333 0.0817279L0.520753 8.47136C0.509977 8.47633 0.49953 8.48227 0.489503 8.48913C0.342628 8.58872 -0.682372 9.33917 0.76294 10.012L0.777784 10.0186L5.09067 11.6864C5.12358 11.6992 5.15842 11.7032 5.19277 11.6982C5.22711 11.6932 5.26013 11.6793 5.2895 11.6574L15.9868 3.66847C16.013 3.64887 16.0422 3.63568 16.0727 3.62966C16.2215 3.6002 16.65 3.54503 16.379 3.95696C16.0723 4.42453 8.76567 12.262 7.95474 13.1312C7.90798 13.1814 7.87904 13.2512 7.87388 13.3262L7.51997 18.3759C7.51993 18.4274 7.52989 18.4781 7.54908 18.5241C7.56827 18.5701 7.59615 18.6102 7.63052 18.641C7.67928 18.6778 7.73662 18.6948 7.79409 18.6896C7.85155 18.6844 7.90609 18.6572 7.94966 18.612L10.5122 15.8707C10.5526 15.8274 10.6043 15.802 10.6585 15.7987C10.7127 15.7953 10.7662 15.8143 10.8102 15.8524L15.2809 19.738L15.2954 19.7497C15.4036 19.8296 16.5723 20.6436 16.9098 18.8257L19.9958 1.26141C20 1.20577 20.0418 0.594186 19.6766 0.232753C19.293 -0.145044 18.75 0.0457248 18.6684 0.0662979C18.6564 0.0703107 18.6446 0.0754705 18.6333 0.0817279Z" fill="#720D1E"/>
</svg>