<svg xmlns="http://www.w3.org/2000/svg" width="20" height="20" viewBox="0 0 20 20" fill="none">
  <path fill-rule="evenodd" clip-rule="evenodd" d="M10.7711 1.07555C15.7542 1.8291 18.0523 4.15963 18.6869 9.09568C18.7457 9.55165 18.5731 10.2376 19.2345 10.2503C19.9257 10.2634 19.7591 9.58734 19.7649 9.13095C19.8235 4.48191 15.702 0.172273 10.9152 0.0132437C10.554 0.0643529 9.80673 -0.231742 9.76013 0.564462C9.72921 1.10111 10.3584 1.01304 10.7711 1.07555Z" fill="#720D1E"/>
  <path fill-rule="evenodd" clip-rule="evenodd" d="M18.4611 14.4552C16.7887 13.2949 14.6858 11.0744 13.0471 13.5477C12.5002 14.362 11.7346 14.3975 10.9341 14.0404C8.72716 13.0562 7.0232 11.54 6.02487 9.33391C4.84766 6.59365 7.72969 7.10833 7.67622 5.19787C7.61889 4.15794 5.05123 0.682098 4.03723 0.315253C3.61762 0.163403 3.19974 0.17333 2.77283 0.314408C0.395222 1.10069 -0.589579 3.02383 0.353562 5.30093C3.16731 12.0946 8.1188 16.8241 14.9351 19.7108C15.3238 19.8751 15.7554 19.9407 15.974 19.9999C17.5259 20.0153 19.3437 18.5447 19.8688 17.0854C20.3743 15.6814 19.3062 15.1242 18.4611 14.4552Z" fill="#720D1E"/>
  <path fill-rule="evenodd" clip-rule="evenodd" d="M11.7504 2.42509C11.2711 2.36828 10.6382 2.14611 10.5263 2.80039C10.4093 3.48698 11.1145 3.41729 11.5678 3.51697C14.6455 4.19343 15.7171 5.29523 16.2238 8.29758C16.2979 8.73538 16.1508 9.4167 16.9071 9.30371C17.4676 9.21965 17.2653 8.6357 17.3121 8.29462C17.3371 5.41202 14.8254 2.78835 11.7504 2.42509Z" fill="#720D1E"/>
  <path fill-rule="evenodd" clip-rule="evenodd" d="M12.0417 4.77062C11.7217 4.77844 11.4078 4.81244 11.2901 5.14866C11.1136 5.6513 11.4851 5.77105 11.8632 5.83082C13.1257 6.03019 13.7901 6.7624 13.9164 8.00064C13.9505 8.33665 14.1674 8.60909 14.4975 8.57065C14.9549 8.51701 14.9963 8.11658 14.9821 7.73622C15.0047 6.34508 13.4059 4.73725 12.0417 4.77062Z" fill="#720D1E"/>
</svg>