<svg width="32" height="32" viewBox="0 0 32 32" fill="none" xmlns="http://www.w3.org/2000/svg">
<path fill-rule="evenodd" clip-rule="evenodd" d="M17.2349 1.72089C25.2078 2.92656 28.8848 6.65541 29.9001 14.5531C29.9943 15.2826 29.718 16.3802 30.7763 16.4004C31.8823 16.4214 31.6157 15.3397 31.6249 14.6095C31.7187 7.17106 25.1243 0.275638 17.4654 0.0211899C16.8875 0.102965 15.6919 -0.370788 15.6173 0.90314C15.5678 1.76177 16.5745 1.62086 17.2349 1.72089Z" fill="white"/>
<path fill-rule="evenodd" clip-rule="evenodd" d="M29.539 23.1285C26.8632 21.272 23.4984 17.7192 20.8765 21.6765C20.0014 22.9794 18.7765 23.0362 17.4957 22.4648C13.9646 20.8901 11.2383 18.4643 9.64096 14.9344C7.75742 10.55 12.3687 11.3735 12.2831 8.31678C12.1914 6.6529 8.08314 1.09155 6.46073 0.504599C5.78937 0.261641 5.12075 0.277523 4.4377 0.503248C0.633527 1.76129 -0.942154 4.83832 0.566872 8.48168C5.06887 19.3516 12.9913 26.9188 23.8973 31.5374C24.5192 31.8003 25.2098 31.9054 25.5596 32C28.0427 32.0247 30.9511 29.6718 31.7912 27.3368C32.6 25.0904 30.891 24.199 29.539 23.1285Z" fill="white"/>
<path fill-rule="evenodd" clip-rule="evenodd" d="M18.8017 3.8802C18.0348 3.7893 17.0222 3.43382 16.8432 4.48067C16.656 5.57922 17.7843 5.46771 18.5096 5.6272C23.4339 6.70953 25.1484 8.47242 25.9592 13.2762C26.0778 13.9767 25.8424 15.0668 27.0525 14.886C27.9493 14.7515 27.6256 13.8172 27.7005 13.2714C27.7404 8.65928 23.7218 4.46141 18.8017 3.8802Z" fill="white"/>
<path fill-rule="evenodd" clip-rule="evenodd" d="M19.2679 7.63265C18.7559 7.64516 18.2536 7.69956 18.0653 8.23751C17.7829 9.04175 18.3773 9.23334 18.9824 9.32897C21.0023 9.64796 22.0654 10.8195 22.2674 12.8007C22.322 13.3383 22.669 13.7742 23.1971 13.7127C23.929 13.6269 23.9953 12.9862 23.9726 12.3776C24.0087 10.1518 21.4507 7.57926 19.2679 7.63265Z" fill="white"/>
</svg>
