<svg xmlns="http://www.w3.org/2000/svg" width="20" height="20" viewBox="0 0 20 20" fill="none">
  <path d="M10 0C4.47737 0 0 4.47829 0 10.0021C0 12.0231 0.600823 13.9082 1.63374 15.4806L0.345679 19.8436L4.87654 18.5882C6.37449 19.4855 8.12757 20 10 20C15.5226 20 20 15.5217 20 9.99794C20 4.47829 15.5226 0 10 0Z" fill="#720D1E"/>
  <path d="M15.4938 12.7475C15.4815 12.6158 15.4033 12.5005 15.284 12.447C14.4774 12.0766 13.6667 11.7061 12.8601 11.3357C12.7696 11.2945 12.6585 11.3151 12.5926 11.3933L11.498 12.6281C11.4115 12.7269 11.2757 12.7598 11.1564 12.7105C10.5885 12.4758 9.82306 12.0807 9.0494 11.4139C8.12348 10.6195 7.58027 9.76746 7.27574 9.21179C7.428 9.10889 7.84364 8.80018 8.02883 8.22805C8.02883 8.22393 8.03294 8.21982 8.03294 8.21982C8.14817 7.86583 8.12348 7.48304 7.9959 7.13317C7.7778 6.55281 7.34158 5.42912 7.17286 5.25624C7.14405 5.22743 7.11113 5.19862 7.11113 5.19862C6.98767 5.08748 6.82718 5.02574 6.65846 5.01751C6.60084 5.01339 6.53911 5.0134 6.47327 5.0134C6.28397 5.00928 6.11525 5.00928 5.99179 5.02574C5.64199 5.07514 5.38685 5.30975 5.22636 5.50732C5.03294 5.74194 4.80249 6.09181 4.65022 6.55281C4.63788 6.59397 4.62553 6.63101 4.61319 6.67217C4.44446 7.25665 4.47738 7.8823 4.67903 8.45855C4.86833 8.99775 5.14405 9.63986 5.55969 10.319C6.26339 11.4756 7.02883 12.1918 7.54734 12.6652C8.13171 13.2044 8.85599 13.8671 10.0041 14.4186C11.0659 14.929 12.0288 15.1184 12.6749 15.1966C12.9383 15.2213 13.4239 15.2254 13.9794 15.0155C14.2346 14.9167 14.4486 14.7973 14.6214 14.6697C15.0782 14.3445 15.3992 13.8547 15.4815 13.3032C15.4815 13.2991 15.4815 13.2949 15.4815 13.2908C15.5103 13.0809 15.5062 12.8998 15.4938 12.7475Z" fill="white"/>
</svg>