<svg width="381" height="334" viewBox="0 0 381 334" fill="none" xmlns="http://www.w3.org/2000/svg">
<path opacity="0.1" d="M25.2634 281.378L25.2699 281.387L25.2768 281.395C42.6413 302.135 65.8023 312.5 94.7087 312.5C115.377 312.5 132.765 305.86 146.838 292.571L146.839 292.57C161.736 278.455 169.189 261.005 169.189 240.252C169.189 219.504 161.74 202.057 146.849 187.943C132.782 173.004 115.391 165.53 94.7087 165.53C86.577 165.53 80.567 163.493 76.5836 159.507C72.5691 154.665 70.5485 148.604 70.5485 141.289C70.5485 114.203 80.3637 87.5034 100.041 61.1811C120.559 34.0089 143.118 13.0267 167.714 -1.77906L168.169 -2.05258L167.869 -2.49007L154.306 -22.2826L154.061 -22.6402L153.672 -22.4483C101.828 3.14567 63.1174 34.948 37.5752 72.973L37.5738 72.9751C12.8571 110.171 0.5 151.915 0.5 198.193C0.5 232.087 8.74103 259.829 25.2634 281.378ZM238.574 281.378L238.581 281.387L238.588 281.395C255.952 302.135 279.113 312.5 308.019 312.5C328.688 312.5 346.075 305.86 360.149 292.571L360.15 292.57C375.047 278.455 382.5 261.005 382.5 240.252C382.5 219.504 375.05 202.057 360.16 187.943C346.092 173.004 328.701 165.53 308.019 165.53C299.888 165.53 293.878 163.493 289.894 159.507C285.88 154.666 283.859 148.605 283.859 141.289C283.859 114.203 293.674 87.5032 313.352 61.1808C333.87 34.0087 356.429 13.0266 381.025 -1.77906L381.479 -2.05258L381.179 -2.49007L367.616 -22.2826L367.371 -22.6402L366.983 -22.4483C315.138 3.14567 276.428 34.948 250.886 72.973L250.885 72.9751C226.168 110.171 213.811 151.915 213.811 198.193C213.811 232.087 222.052 259.829 238.574 281.378Z" stroke="black"/>
</svg>
